<svg width="50" height="50" viewBox="0 0 50 50" fill="none" xmlns="http://www.w3.org/2000/svg">
<path fill-rule="evenodd" clip-rule="evenodd" d="M31.1416 2.60417H35.525C37.3968 2.6041 38.9577 2.60406 40.1968 2.77065C41.5048 2.9465 42.6856 3.33331 43.6343 4.28221C44.5833 5.2311 44.9702 6.41194 45.146 7.71983C45.3127 8.95898 45.3125 10.5199 45.3125 12.3917V44.2708H45.8333C46.6962 44.2708 47.3958 44.9704 47.3958 45.8333C47.3958 46.6963 46.6962 47.3958 45.8333 47.3958H4.16663C3.30369 47.3958 2.60413 46.6963 2.60413 45.8333C2.60413 44.9704 3.30369 44.2708 4.16663 44.2708H4.68746V18.6417C4.6874 16.7698 4.68733 15.209 4.85394 13.9698C5.02979 12.6619 5.41661 11.4811 6.3655 10.5322C7.3144 9.58331 8.49523 9.1965 9.80313 9.02065C11.0423 8.85406 12.6031 8.8541 14.475 8.85417H21.4125C21.5195 7.03298 21.8554 5.459 23.0323 4.28221C23.981 3.33331 25.1618 2.9465 26.4698 2.77065C27.7089 2.60406 29.2698 2.6041 31.1416 2.60417ZM22.9308 11.9792H22.9229H22.9166H14.5833C12.5749 11.9792 11.2259 11.9825 10.2195 12.1178C9.25815 12.247 8.84669 12.4704 8.57521 12.7419C8.30371 13.0134 8.08033 13.4249 7.95108 14.3862C7.81577 15.3926 7.81246 16.7416 7.81246 18.75V44.2708H17.1875V39.5833C17.1875 38.7204 17.887 38.0208 18.75 38.0208C19.6129 38.0208 20.3125 38.7204 20.3125 39.5833V44.2708H29.6875V18.75C29.6875 16.7416 29.6841 15.3926 29.5489 14.3862C29.4195 13.4249 29.1962 13.0134 28.9248 12.7419C28.6533 12.4704 28.2418 12.247 27.2804 12.1178C26.2764 11.9828 24.9314 11.9792 22.9308 11.9792ZM32.8125 44.2708V18.6417C32.8125 16.7699 32.8127 15.209 32.646 13.9698C32.4702 12.6619 32.0833 11.4811 31.1343 10.5322C30.1856 9.58331 29.0048 9.1965 27.6968 9.02065C26.8106 8.90152 25.76 8.8676 24.5487 8.85798C24.6531 7.4004 24.8825 6.85131 25.2418 6.49192C25.5133 6.22042 25.9248 5.99704 26.8862 5.86779C27.8925 5.7325 29.2416 5.72917 31.25 5.72917H35.4166C37.425 5.72917 38.7741 5.7325 39.7804 5.86779C40.7418 5.99704 41.1533 6.22042 41.4248 6.49192C41.6962 6.76342 41.9195 7.17485 42.0489 8.13623C42.1841 9.14256 42.1875 10.4916 42.1875 12.5V44.2708H32.8125ZM10.9375 16.6667C10.9375 15.8037 11.637 15.1042 12.5 15.1042H25C25.8629 15.1042 26.5625 15.8037 26.5625 16.6667C26.5625 17.5296 25.8629 18.2292 25 18.2292H12.5C11.637 18.2292 10.9375 17.5296 10.9375 16.6667ZM10.9375 22.9167C10.9375 22.0538 11.637 21.3542 12.5 21.3542H25C25.8629 21.3542 26.5625 22.0538 26.5625 22.9167C26.5625 23.7796 25.8629 24.4792 25 24.4792H12.5C11.637 24.4792 10.9375 23.7796 10.9375 22.9167ZM10.9375 29.1667C10.9375 28.3038 11.637 27.6042 12.5 27.6042H25C25.8629 27.6042 26.5625 28.3038 26.5625 29.1667C26.5625 30.0296 25.8629 30.7292 25 30.7292H12.5C11.637 30.7292 10.9375 30.0296 10.9375 29.1667Z" fill="black"/>
</svg>
