<svg width="42" height="46" viewBox="0 0 42 46" fill="none" xmlns="http://www.w3.org/2000/svg">
<path fill-rule="evenodd" clip-rule="evenodd" d="M35.4902 0.604163C34.5883 0.604059 33.7616 0.603976 33.0891 0.694393C32.3485 0.793955 31.5658 1.02823 30.922 1.67202C30.2781 2.31581 30.0439 3.09858 29.9443 3.83916C29.8539 4.51168 29.8541 5.33841 29.8541 6.2401V33.51C29.8541 34.4117 29.8539 35.2383 29.9443 35.9108C30.0439 36.6515 30.2781 37.4342 30.922 38.0779C31.5658 38.7219 32.3485 38.956 33.0891 39.0556C33.7616 39.146 34.5883 39.146 35.4902 39.1458H35.6766C36.5783 39.146 37.405 39.146 38.0775 39.0556C38.8181 38.956 39.6008 38.7219 40.2445 38.0779C40.8885 37.4342 41.1227 36.6515 41.2222 35.9108C41.3127 35.2383 41.3127 34.4117 41.3125 33.51V6.24012C41.3127 5.33843 41.3127 4.51168 41.2222 3.83916C41.1227 3.09858 40.8885 2.31581 40.2445 1.67202C39.6008 1.02823 38.8181 0.793955 38.0775 0.694393C37.405 0.603976 36.5783 0.604059 35.6766 0.604163H35.4902ZM33.1368 3.87889L33.1316 3.88175L33.1289 3.88683C33.1268 3.89085 33.1233 3.89777 33.1191 3.90827C33.1004 3.95364 33.0685 4.05439 33.0414 4.25556C32.9825 4.69456 32.9791 5.30708 32.9791 6.33335V33.4167C32.9791 34.4429 32.9825 35.0554 33.0414 35.4944C33.0685 35.6956 33.1004 35.7965 33.1191 35.8417C33.1233 35.8523 33.1268 35.8592 33.1289 35.8631L33.1316 35.8683L33.1368 35.871L33.1435 35.8744C33.1472 35.8762 33.1523 35.8785 33.1583 35.8808C33.2037 35.8996 33.3043 35.9315 33.5056 35.9585C33.9445 36.0175 34.557 36.0208 35.5833 36.0208C36.6095 36.0208 37.222 36.0175 37.661 35.9585C37.8622 35.9315 37.9631 35.8996 38.0083 35.8808C38.0189 35.8767 38.0258 35.8733 38.0297 35.871L38.035 35.8683L38.0377 35.8631C38.04 35.8592 38.0433 35.8523 38.0475 35.8417C38.0662 35.7965 38.0981 35.6956 38.1252 35.4944C38.1841 35.0554 38.1875 34.4429 38.1875 33.4167V6.33335C38.1875 5.30708 38.1841 4.69456 38.1252 4.25556C38.0981 4.05439 38.0662 3.95364 38.0475 3.90827C38.0433 3.89777 38.04 3.89085 38.0377 3.88683L38.035 3.88175L38.0297 3.87889C38.0258 3.87679 38.0189 3.87341 38.0083 3.8691C37.9631 3.85043 37.8622 3.81856 37.661 3.79152C37.222 3.7325 36.6095 3.72918 35.5833 3.72918C34.557 3.72918 33.9445 3.7325 33.5056 3.79152C33.3043 3.81856 33.2037 3.85043 33.1583 3.8691C33.1477 3.87341 33.1408 3.87679 33.1368 3.87889Z" fill="black"/>
<path fill-rule="evenodd" clip-rule="evenodd" d="M20.9069 6.85416H21.0934C21.995 6.85406 22.8217 6.85398 23.4942 6.94439C24.2348 7.04396 25.0175 7.27823 25.6613 7.92202C26.3053 8.56581 26.5394 9.34858 26.639 10.0892C26.7294 10.7617 26.7294 11.5884 26.7292 12.4901V33.51C26.7294 34.4117 26.7294 35.2383 26.639 35.9108C26.5394 36.6515 26.3053 37.4342 25.6613 38.0779C25.0175 38.7219 24.2348 38.956 23.4942 39.0556C22.8217 39.146 21.995 39.146 21.0934 39.1458H20.9069C20.0053 39.146 19.1784 39.146 18.5059 39.0556C17.7653 38.956 16.9825 38.7219 16.3387 38.0779C15.6949 37.4342 15.4607 36.6515 15.3611 35.9108C15.2707 35.2383 15.2708 34.4117 15.2709 33.51V12.4901C15.2708 11.5884 15.2707 10.7617 15.3611 10.0892C15.4607 9.34858 15.6949 8.56581 16.3387 7.92202C16.9825 7.27823 17.7653 7.04396 18.5059 6.94439C19.1784 6.85398 20.005 6.85406 20.9069 6.85416ZM18.5484 10.1317L18.5536 10.1289L18.5488 35.8683L18.5457 35.8631C18.5436 35.8592 18.54 35.8523 18.5359 35.8417C18.5171 35.7965 18.4853 35.6956 18.4582 35.4944C18.3992 35.0554 18.3959 34.4429 18.3959 33.4167V12.5834C18.3959 11.5571 18.3992 10.9446 18.4582 10.5056C18.4853 10.3044 18.5171 10.2036 18.5359 10.1583C18.54 10.1478 18.5436 10.1409 18.5457 10.1368L18.5484 10.1317ZM18.5488 35.8683L18.5536 10.1289L18.5615 10.125L18.575 10.1191C18.6205 10.1004 18.7211 10.0686 18.9223 10.0415C19.3613 9.9825 19.9738 9.97918 21 9.97918C22.0263 9.97918 22.6388 9.9825 23.0778 10.0415C23.279 10.0686 23.3798 10.1004 23.425 10.1191C23.4357 10.1234 23.4425 10.1268 23.4465 10.1289L23.4517 10.1317L23.4544 10.1368C23.4567 10.1409 23.46 10.1478 23.4642 10.1583C23.483 10.2036 23.5148 10.3044 23.5419 10.5056C23.6009 10.9446 23.6042 11.5571 23.6042 12.5834V33.4167C23.6042 34.4429 23.6009 35.0554 23.5419 35.4944C23.5148 35.6956 23.483 35.7965 23.4642 35.8417C23.46 35.8523 23.4567 35.8592 23.4544 35.8631L23.4517 35.8683L23.4465 35.871C23.444 35.8725 23.44 35.8744 23.4346 35.8769C23.4319 35.8781 23.4288 35.8794 23.425 35.8808C23.3798 35.8996 23.279 35.9315 23.0778 35.9585C22.6388 36.0175 22.0263 36.0208 21 36.0208C19.9738 36.0208 19.3613 36.0175 18.9223 35.9585C18.7211 35.9315 18.6205 35.8996 18.575 35.8808C18.5644 35.8767 18.5575 35.8733 18.5536 35.871L18.5488 35.8683Z" fill="black"/>
<path fill-rule="evenodd" clip-rule="evenodd" d="M6.32346 15.1875C5.42176 15.1874 4.59503 15.1873 3.92251 15.2777C3.18192 15.3773 2.39915 15.6116 1.75536 16.2553C1.11157 16.8991 0.877299 17.6819 0.777736 18.4225C0.687319 19.095 0.687403 19.9217 0.687507 20.8235V33.51C0.687403 34.4117 0.687319 35.2383 0.777736 35.9108C0.877299 36.6515 1.11157 37.4342 1.75536 38.0779C2.39915 38.7219 3.18192 38.956 3.92251 39.0556C4.59503 39.146 5.42178 39.146 6.32346 39.1458H6.5099C7.41161 39.146 8.23834 39.146 8.91086 39.0556C9.65146 38.956 10.4342 38.7219 11.078 38.0779C11.7218 37.4342 11.9561 36.6515 12.0557 35.9108C12.1461 35.2383 12.146 34.4117 12.1459 33.51V20.8235C12.146 19.9217 12.1461 19.095 12.0557 18.4225C11.9561 17.6819 11.7218 16.8991 11.078 16.2553C10.4342 15.6116 9.65146 15.3773 8.91086 15.2777C8.23834 15.1873 7.41161 15.1874 6.50992 15.1875H6.32346ZM3.97017 18.4622L3.96509 18.4651L3.96224 18.4702C3.96013 18.4742 3.95676 18.4811 3.95244 18.4916C3.93378 18.537 3.9019 18.6377 3.87486 18.8389C3.81584 19.2779 3.81253 19.8904 3.81253 20.9167V33.4167C3.81253 34.4429 3.81584 35.0554 3.87486 35.4944C3.9019 35.6956 3.93378 35.7964 3.95244 35.8417C3.95676 35.8523 3.96013 35.8592 3.96224 35.8631L3.96426 35.8669L3.97017 35.871C3.97419 35.8733 3.98111 35.8767 3.99161 35.8808C4.03699 35.8996 4.13774 35.9315 4.3389 35.9585C4.7779 36.0175 5.39042 36.0208 6.41669 36.0208C7.44294 36.0208 8.05547 36.0175 8.49447 35.9585C8.69563 35.9315 8.79638 35.8996 8.84176 35.8808C8.85228 35.8767 8.85917 35.8733 8.86321 35.871L8.86828 35.8683L8.87115 35.8631L8.87576 35.8537L8.88094 35.8417C8.89961 35.7964 8.93147 35.6956 8.95851 35.4944C9.01753 35.0554 9.02086 34.4429 9.02086 33.4167V20.9167C9.02086 19.8904 9.01753 19.2779 8.95851 18.8389C8.93147 18.6377 8.89961 18.537 8.88094 18.4916C8.87661 18.4811 8.87326 18.4742 8.87115 18.4702L8.86828 18.4651L8.86321 18.4622C8.85917 18.4601 8.85228 18.4567 8.84176 18.4524C8.79638 18.4337 8.69563 18.4019 8.49447 18.3748C8.05547 18.3158 7.44294 18.3125 6.41669 18.3125C5.39042 18.3125 4.7779 18.3158 4.3389 18.3748C4.13774 18.4019 4.03699 18.4337 3.99161 18.4524C3.98111 18.4567 3.97419 18.4601 3.97017 18.4622Z" fill="black"/>
<path d="M2.25 42.2708C1.38704 42.2708 0.6875 42.9704 0.6875 43.8333C0.6875 44.6962 1.38704 45.3958 2.25 45.3958H39.75C40.6129 45.3958 41.3125 44.6962 41.3125 43.8333C41.3125 42.9704 40.6129 42.2708 39.75 42.2708H2.25Z" fill="black"/>
</svg>
