<svg width="20" height="20" viewBox="0 0 20 20" fill="none" xmlns="http://www.w3.org/2000/svg">
<path d="M9.08334 1.74994C5.25001 2.16661 2.16667 5.24994 1.75001 8.99994C1.33334 12.9166 3.58334 16.4166 7.00001 17.7499C7.25001 17.8333 7.50001 17.6666 7.50001 17.3333V15.9999C7.50001 15.9999 7.16667 16.0833 6.75001 16.0833C5.58334 16.0833 5.08334 15.0833 5.00001 14.4999C4.91667 14.1666 4.75001 13.9166 4.50001 13.6666C4.25001 13.5833 4.16667 13.5833 4.16667 13.4999C4.16667 13.3333 4.41667 13.3333 4.50001 13.3333C5.00001 13.3333 5.41667 13.9166 5.58334 14.1666C6.00001 14.8333 6.50001 14.9999 6.75001 14.9999C7.08334 14.9999 7.33334 14.9166 7.50001 14.8333C7.58334 14.2499 7.83334 13.6666 8.33334 13.3333C6.41667 12.9166 5.00001 11.8333 5.00001 9.99994C5.00001 9.08327 5.41667 8.16661 6.00001 7.49994C5.91667 7.33327 5.83334 6.91661 5.83334 6.33327C5.83334 5.99994 5.83334 5.49994 6.08334 4.99994C6.08334 4.99994 7.25001 4.99994 8.41668 6.08327C8.83334 5.91661 9.41668 5.83327 10 5.83327C10.5833 5.83327 11.1667 5.91661 11.6667 6.08327C12.75 4.99994 14 4.99994 14 4.99994C14.1667 5.49994 14.1667 5.99994 14.1667 6.33327C14.1667 6.99994 14.0833 7.33327 14 7.49994C14.5833 8.16661 15 8.99994 15 9.99994C15 11.8333 13.5833 12.9166 11.6667 13.3333C12.1667 13.7499 12.5 14.4999 12.5 15.2499V17.4166C12.5 17.6666 12.75 17.9166 13.0833 17.8333C16.1667 16.5833 18.3333 13.5833 18.3333 10.0833C18.3333 5.08327 14.0833 1.16661 9.08334 1.74994Z" fill="black"/>
</svg>
