<svg width="50" height="50" viewBox="0 0 50 50" fill="none" xmlns="http://www.w3.org/2000/svg">
<path fill-rule="evenodd" clip-rule="evenodd" d="M25 5.72916C17.2335 5.72916 10.9375 12.0252 10.9375 19.7917C10.9375 23.9552 12.745 27.6946 15.6231 30.2717L15.6321 30.2798C16.7918 31.3183 17.6728 32.1071 18.3026 32.6846C18.8956 33.2281 19.3654 33.6725 19.6115 33.9762L19.6382 34.0092C20.0992 34.5779 20.5009 35.0735 20.7658 35.6665C21.0308 36.2592 21.1321 36.889 21.2483 37.6119L21.255 37.6537C21.3146 38.0244 21.3385 38.4794 21.3479 39.0625H28.6521C28.6615 38.4794 28.6854 38.0244 28.745 37.6537L28.7517 37.6119C28.8679 36.889 28.9692 36.2592 29.2342 35.6665C29.4992 35.0735 29.9008 34.5779 30.3617 34.0092L30.3885 33.9762C30.6346 33.6725 31.1044 33.2281 31.6973 32.6846C32.3273 32.1071 33.2083 31.3181 34.3679 30.2798L34.3769 30.2717C37.255 27.6946 39.0625 23.9552 39.0625 19.7917C39.0625 12.0252 32.7665 5.72916 25 5.72916ZM28.6325 42.1875H21.3675C21.3744 42.4046 21.3846 42.5944 21.4002 42.7652C21.4427 43.2342 21.5144 43.4044 21.5635 43.4896C21.7006 43.7271 21.8979 43.9244 22.1354 44.0615C22.2206 44.1106 22.3908 44.1823 22.8598 44.2248C23.3504 44.2694 23.9977 44.2708 25 44.2708C26.0023 44.2708 26.6496 44.2694 27.1402 44.2248C27.6092 44.1823 27.7794 44.1106 27.8646 44.0615C28.1021 43.9244 28.2994 43.7271 28.4365 43.4896C28.4856 43.4044 28.5573 43.2342 28.5998 42.7652C28.6154 42.5944 28.6256 42.4046 28.6325 42.1875ZM7.8125 19.7917C7.8125 10.2993 15.5076 2.60416 25 2.60416C34.4923 2.60416 42.1875 10.2993 42.1875 19.7917C42.1875 24.8808 39.9738 29.455 36.4617 32.5998C35.291 33.6479 34.4237 34.4246 33.8092 34.9879C33.5019 35.2698 33.2669 35.4898 33.0935 35.6587C33.0071 35.7429 32.941 35.8096 32.8917 35.8612C32.8673 35.8867 32.849 35.9067 32.8356 35.9215C32.8221 35.9367 32.8165 35.9435 32.8165 35.9435C32.2744 36.6125 32.1571 36.785 32.0873 36.9414C32.0173 37.0977 31.9671 37.3002 31.8304 38.1502C31.7765 38.4858 31.7708 39.0606 31.7708 40.625V40.6921C31.7708 41.6083 31.7708 42.3987 31.7121 43.0473C31.65 43.7329 31.5123 44.4121 31.1429 45.0521C30.7315 45.7646 30.1396 46.3565 29.4271 46.7679C28.7871 47.1373 28.1079 47.275 27.4223 47.3371C26.7737 47.3958 25.9833 47.3958 25.0671 47.3958H24.9329C24.0167 47.3958 23.2263 47.3958 22.5779 47.3371C21.8921 47.275 21.2129 47.1373 20.5729 46.7679C19.8603 46.3565 19.2686 45.7646 18.8572 45.0521C18.4876 44.4121 18.35 43.7329 18.2879 43.0473C18.2291 42.3987 18.2291 41.6083 18.2292 40.6921V40.625C18.2292 39.0606 18.2236 38.4858 18.1697 38.1502C18.0329 37.3002 17.9826 37.0977 17.9127 36.9414C17.8429 36.785 17.7256 36.6125 17.1836 35.9435C17.1836 35.9435 17.1774 35.936 17.1643 35.9215C17.151 35.9067 17.1327 35.8867 17.1083 35.8612C17.0591 35.8096 16.9929 35.7429 16.9065 35.6587C16.7331 35.4898 16.4982 35.2698 16.1909 34.9879C15.5762 34.4246 14.709 33.6479 13.5384 32.5998C10.0263 29.455 7.8125 24.8808 7.8125 19.7917Z" fill="black"/>
<path fill-rule="evenodd" clip-rule="evenodd" d="M27.5448 16.4369C28.2471 16.9384 28.4096 17.9143 27.9082 18.6165L25.2086 22.3958H28.4223C29.0077 22.3958 29.5438 22.7229 29.8117 23.2433C30.0796 23.7637 30.034 24.3902 29.6938 24.8664L25.2296 31.1164C24.728 31.8187 23.7521 31.9814 23.0498 31.4798C22.3477 30.9781 22.185 30.0023 22.6867 29.3002L25.3861 25.5208H22.1723C21.5871 25.5208 21.0509 25.1937 20.7831 24.6733C20.5152 24.1529 20.5607 23.5264 20.9009 23.0502L25.3652 16.8001C25.8667 16.0979 26.8425 15.9353 27.5448 16.4369Z" fill="black"/>
</svg>
