<svg width="28" height="28" viewBox="0 0 28 28" fill="none" xmlns="http://www.w3.org/2000/svg">
<g clip-path="url(#clip0_216_2248)">
<path fill-rule="evenodd" clip-rule="evenodd" d="M5.54358 6.09675C6.1721 7.09681 7.55566 7.39324 8.63386 6.75887C9.71205 6.12449 11.8884 2.36367 11.8884 2.36367C11.8884 2.36367 7.43598 2.50298 6.35779 3.13736C5.27959 3.77173 4.91506 5.0967 5.54358 6.09675Z" fill="#80D25B"/>
<path d="M7.28953 4.98854C6.28022 5.2458 5.41909 5.76206 4.76593 6.43997" stroke="#22BA8E" stroke-width="2" stroke-linecap="round"/>
<path fill-rule="evenodd" clip-rule="evenodd" d="M19.9372 3.41197C19.2145 4.38136 19.449 5.78155 20.461 6.53938C21.4731 7.29721 25.8927 7.87151 25.8927 7.87151C25.8927 7.87151 24.0904 3.78672 23.0783 3.02889C22.0663 2.27107 20.66 2.44258 19.9372 3.41197Z" fill="#80D25B"/>
<path d="M21.6367 4.69416C20.9921 3.86979 20.1506 3.29056 19.231 2.97097" stroke="#22BA8E" stroke-width="2" stroke-linecap="round"/>
<path fill-rule="evenodd" clip-rule="evenodd" d="M26.1176 14.2493C24.9435 13.9585 23.7448 14.7176 23.4401 15.9449C23.1355 17.1721 24.3249 21.4712 24.3249 21.4712C24.3249 21.4712 27.3872 18.2252 27.6918 16.998C27.9964 15.7707 27.2916 14.5401 26.1176 14.2493Z" fill="#80D25B"/>
<path d="M25.5826 16.3137C26.0939 15.4014 26.3064 14.4 26.2517 13.4252" stroke="#22BA8E" stroke-width="2" stroke-linecap="round"/>
<path fill-rule="evenodd" clip-rule="evenodd" d="M4.98249 19.7486C5.99678 19.1627 6.33416 17.795 5.73607 16.6936C5.13797 15.5923 1.46292 13.2676 1.46292 13.2676C1.46292 13.2676 1.46494 17.714 2.06303 18.8153C2.66112 19.9166 3.96821 20.3345 4.98249 19.7486Z" fill="#80D25B"/>
<path d="M3.93181 17.9644C4.15544 18.9798 4.64049 19.8554 5.29232 20.5287" stroke="#22BA8E" stroke-width="2" stroke-linecap="round"/>
<path fill-rule="evenodd" clip-rule="evenodd" d="M17.6699 24.4532C17.5851 23.1615 16.4602 22.2094 15.1573 22.3266C13.8544 22.4438 10.0027 25.143 10.0027 25.143C10.0027 25.143 14.1612 27.1216 15.4642 27.0043C16.7671 26.8871 17.7546 25.745 17.6699 24.4532Z" fill="#80D25B"/>
<path d="M15.4096 24.4998C16.4387 24.6509 17.4444 24.5112 18.3303 24.1461" stroke="#22BA8E" stroke-width="2" stroke-linecap="round"/>
<path d="M14.4375 21.4375C18.7867 21.4375 22.3125 17.9117 22.3125 13.5625C22.3125 9.21326 18.7867 5.6875 14.4375 5.6875C10.0883 5.6875 6.5625 9.21326 6.5625 13.5625C6.5625 17.9117 10.0883 21.4375 14.4375 21.4375Z" fill="#80D25B"/>
<mask id="mask0_216_2248" style="mask-type:luminance" maskUnits="userSpaceOnUse" x="6" y="5" width="17" height="17">
<path d="M14.4375 21.4375C18.7867 21.4375 22.3125 17.9117 22.3125 13.5625C22.3125 9.21326 18.7867 5.6875 14.4375 5.6875C10.0883 5.6875 6.5625 9.21326 6.5625 13.5625C6.5625 17.9117 10.0883 21.4375 14.4375 21.4375Z" fill="white"/>
</mask>
<g mask="url(#mask0_216_2248)">
<path fill-rule="evenodd" clip-rule="evenodd" d="M18.5164 11.374C18.5164 11.374 16.6544 10.5941 16.0998 10.9841C15.5452 11.374 15.8415 13.2153 15.8415 13.2153C15.8415 13.2153 15.0149 14.4311 15.4282 15.0705C15.8415 15.71 16.9895 15.4902 17.6345 16.0542C18.2795 16.6183 18.0115 17.6306 18.0115 17.6306L17.8555 18.8125C17.8555 18.8125 19.5831 18.018 20.0809 16.8733C20.5787 15.7286 20.4174 13.9341 20.4174 13.9341L21.4258 12.9958L22.3125 10.0445L19.2008 9.01165L18.858 7.4375L16.6328 8.08483L16.4318 9.80172L18.1408 10.3825L18.5164 11.374ZM6.125 12.25C6.125 12.25 6.78694 11.8479 6.87529 11.8415C7.55309 11.7924 9.91501 11.9297 10.5326 11.0767C11.2306 10.1125 11.8125 8.83576 11.8125 8.83576L11.7891 7.85341L8.13921 7L6.125 12.25Z" fill="#22BA8E"/>
</g>
</g>
<defs>
<clipPath id="clip0_216_2248">
<rect width="28" height="28" fill="white"/>
</clipPath>
</defs>
</svg>
