<svg width="50" height="50" viewBox="0 0 50 50" fill="none" xmlns="http://www.w3.org/2000/svg">
<path fill-rule="evenodd" clip-rule="evenodd" d="M11.6208 11.1305C7.98838 14.6353 5.72913 19.5538 5.72913 25C5.72913 35.6429 14.357 44.2708 25 44.2708C25.2656 44.2708 25.53 44.2654 25.7931 44.2548C25.365 42.3556 25.307 39.8023 26.6125 37.3423C27.971 34.7823 30.7837 33.6713 32.8518 33.1629C33.9354 32.8967 34.9391 32.7652 35.6689 32.6998C36.0358 32.6669 36.3381 32.6502 36.5525 32.6417C36.6595 32.6375 36.7452 32.6352 36.8062 32.6342L36.8789 32.6331L36.8966 32.6329C40.381 32.5967 41.9508 31.4635 42.7839 30.3825C43.4956 29.4592 43.7643 28.5356 44.0368 27.599C44.0714 27.4798 44.1062 27.3604 44.1418 27.2408C44.227 26.5056 44.2708 25.7579 44.2708 25C44.2708 19.7415 42.1645 14.9749 38.7498 11.4979C38.7316 11.5688 38.7131 11.6388 38.6941 11.7075C38.355 12.9428 37.8073 14.2107 37.212 15.1141C36.6789 15.9232 35.6448 16.7394 34.7864 17.3561C34.2214 17.762 33.6333 18.1069 33.0998 18.4143C33.0354 18.4515 32.9718 18.4881 32.9089 18.5242C32.4339 18.7975 32.0064 19.0433 31.595 19.3151C30.6954 19.9095 29.9993 20.5492 29.5308 21.5152C29.3668 21.8535 29.3616 22.1835 29.4587 22.5369C29.6141 23.1025 29.72 23.7388 29.7216 24.3875C29.7252 25.7396 29.0364 26.8369 28.1512 27.5502C27.2766 28.2552 26.1335 28.6583 24.9829 28.6458C19.8677 28.5898 16.7227 24.4388 16.3079 19.8218C16.1429 17.9853 15.3377 16.1275 14.321 14.5039C13.3873 13.0127 12.3353 11.8145 11.6208 11.1305ZM14.0521 9.13879C14.9168 10.0096 16.0017 11.2996 16.9696 12.8454C18.1311 14.7003 19.1953 17.0366 19.4204 19.5422C19.7349 23.0427 21.9477 25.4875 25.017 25.5208C25.4391 25.5256 25.8775 25.3692 26.1904 25.1171C26.4927 24.8735 26.5973 24.6163 26.5966 24.3956C26.5958 24.0717 26.5412 23.7135 26.4452 23.3642C26.1929 22.445 26.1568 21.3108 26.7191 20.1515C27.5212 18.4977 28.71 17.4758 29.8725 16.7077C30.3706 16.3786 30.8875 16.0816 31.3537 15.8136C31.4166 15.7775 31.4785 15.7419 31.5393 15.7069C32.071 15.4004 32.5379 15.1237 32.9629 14.8183C33.861 14.173 34.4291 13.6579 34.6025 13.3947C34.9827 12.8178 35.4102 11.8653 35.6806 10.8802C35.895 10.0997 35.9543 9.50075 35.9343 9.1295C32.8277 6.98502 29.0604 5.72917 25 5.72917C20.9335 5.72917 17.1614 6.98865 14.0521 9.13879ZM47.2483 27.584C47.3458 26.736 47.3958 25.874 47.3958 25C47.3958 12.6311 37.3689 2.60417 25 2.60417C12.6311 2.60417 2.60413 12.6311 2.60413 25C2.60413 37.369 12.6311 47.3958 25 47.3958C36.3758 47.3958 45.7706 38.9144 47.2058 27.93C47.2439 27.7977 47.2768 27.6875 47.3064 27.6044L47.2483 27.584ZM41.4681 35.0138C40.2273 35.4685 38.7316 35.739 36.9293 35.7579H36.9129H36.9075L36.8645 35.7585C36.8239 35.7594 36.7602 35.7608 36.6758 35.7642C36.5068 35.771 36.257 35.7846 35.9483 35.8123C35.3273 35.8679 34.4868 35.9792 33.5977 36.1977C31.7202 36.6592 30.0729 37.4879 29.3729 38.8071C28.4239 40.5952 28.5593 42.5408 28.9133 43.8733C34.2237 42.7779 38.7356 39.4977 41.4681 35.0138Z" fill="black"/>
</svg>
