<svg width="50" height="50" viewBox="0 0 50 50" fill="none" xmlns="http://www.w3.org/2000/svg">
<path fill-rule="evenodd" clip-rule="evenodd" d="M22.8023 2.60417H27.1977C30.0468 2.60413 32.3433 2.60409 34.1495 2.84692C36.0248 3.09905 37.6035 3.6384 38.8577 4.8924C39.4793 5.51421 39.9254 6.2159 40.2479 6.99401C42.1898 7.23726 43.82 7.77155 45.1077 9.05917C46.3616 10.3132 46.901 11.8921 47.1531 13.7673C47.3958 15.5735 47.3958 17.87 47.3958 20.7191V29.2811C47.3958 32.1302 47.3958 34.4267 47.1531 36.2329C46.901 38.1081 46.3616 39.6871 45.1077 40.941C43.82 42.2288 42.1898 42.7629 40.2479 43.0063C39.9254 43.7842 39.4793 44.4858 38.8577 45.1077C37.6035 46.3617 36.0248 46.901 34.1495 47.1531C32.3433 47.3958 30.0468 47.3958 27.1977 47.3958H22.8023C19.9532 47.3958 17.6567 47.3958 15.8505 47.1531C13.9753 46.901 12.3964 46.3617 11.1424 45.1077C10.5206 44.4858 10.0745 43.7842 9.75206 43.0063C7.81025 42.7629 6.18002 42.2288 4.89236 40.941C3.63836 39.6871 3.099 38.1081 2.84688 36.2329C2.60404 34.4267 2.60409 32.1302 2.60413 29.2811V20.7191C2.60409 17.87 2.60404 15.5735 2.84688 13.7673C3.099 11.8921 3.63836 10.3132 4.89236 9.05917C6.18 7.77155 7.81021 7.23726 9.75196 6.99401C10.0745 6.2159 10.5205 5.51421 11.1424 4.8924C12.3964 3.6384 13.9753 3.09905 15.8505 2.84692C17.6567 2.60409 19.9532 2.60413 22.8023 2.60417ZM9.01754 10.2927C8.10584 10.5124 7.53746 10.8335 7.10206 11.2689C6.52548 11.8455 6.14954 12.655 5.94402 14.1837C5.73244 15.7573 5.72913 17.843 5.72913 20.8335V29.1669C5.72913 32.1573 5.73244 34.2429 5.94402 35.8165C6.14954 37.3452 6.52548 38.1548 7.10206 38.7313C7.53748 39.1667 8.10586 39.4879 9.01757 39.7075C8.85407 38.0175 8.85409 35.9448 8.85413 33.4477V16.5523C8.85409 14.0553 8.85407 11.9827 9.01754 10.2927ZM40.9825 39.7075C41.8941 39.4879 42.4625 39.1667 42.8979 38.7313C43.4745 38.1548 43.8504 37.3452 44.056 35.8165C44.2675 34.2429 44.2708 32.1573 44.2708 29.1669V20.8335C44.2708 17.843 44.2675 15.7573 44.056 14.1837C43.8504 12.655 43.4745 11.8455 42.8979 11.2689C42.4625 10.8335 41.8941 10.5124 40.9825 10.2927C41.1458 11.9827 41.1458 14.0553 41.1458 16.5524V33.4477C41.1458 35.9448 41.1458 38.0175 40.9825 39.7075ZM16.2669 5.94407C14.7382 6.14959 13.9286 6.52553 13.3521 7.10211C12.7755 7.67869 12.3995 8.48823 12.194 10.0169C11.9824 11.5906 11.9791 13.6762 11.9791 16.6667V33.3333C11.9791 36.3238 11.9824 38.4094 12.194 39.9831C12.3995 41.5119 12.7755 42.3213 13.3521 42.8979C13.9286 43.4746 14.7382 43.8504 16.2669 44.056C17.8405 44.2675 19.9262 44.2708 22.9166 44.2708H27.0833C30.0737 44.2708 32.1593 44.2675 33.7331 44.056C35.2618 43.8504 36.0712 43.4746 36.6479 42.8979C37.2245 42.3213 37.6004 41.5119 37.806 39.9831C38.0175 38.4094 38.0208 36.3238 38.0208 33.3333V16.6667C38.0208 13.6762 38.0175 11.5906 37.806 10.0169C37.6004 8.48823 37.2245 7.67869 36.6479 7.10211C36.0712 6.52553 35.2618 6.14959 33.7331 5.94407C32.1593 5.73249 30.0737 5.72917 27.0833 5.72917H22.9166C19.9262 5.72917 17.8405 5.73249 16.2669 5.94407ZM17.1875 18.75C17.1875 17.8871 17.887 17.1875 18.75 17.1875H31.25C32.1129 17.1875 32.8125 17.8871 32.8125 18.75C32.8125 19.613 32.1129 20.3125 31.25 20.3125H18.75C17.887 20.3125 17.1875 19.613 17.1875 18.75ZM17.1875 27.0833C17.1875 26.2204 17.887 25.5208 18.75 25.5208H31.25C32.1129 25.5208 32.8125 26.2204 32.8125 27.0833C32.8125 27.9463 32.1129 28.6458 31.25 28.6458H18.75C17.887 28.6458 17.1875 27.9463 17.1875 27.0833ZM17.1875 35.4167C17.1875 34.5538 17.887 33.8542 18.75 33.8542H25C25.8629 33.8542 26.5625 34.5538 26.5625 35.4167C26.5625 36.2796 25.8629 36.9792 25 36.9792H18.75C17.887 36.9792 17.1875 36.2796 17.1875 35.4167Z" fill="black"/>
</svg>
